<svg width="1307" height="489" viewBox="0 0 1307 489" fill="none" xmlns="http://www.w3.org/2000/svg">
<path d="M84.8313 374.1C78.4313 374.1 75.2313 371.567 75.2313 366.5C75.2313 361.433 78.5646 355.167 85.2313 347.7C91.3646 341.033 101.365 333.967 115.231 326.5C129.098 318.767 144.965 311.967 162.831 306.1C166.831 304.767 170.031 304.1 172.431 304.1C175.631 304.1 177.231 304.767 177.231 306.1C177.231 307.433 175.631 308.5 172.431 309.3C161.231 312.233 150.165 316.5 139.231 322.1C128.298 327.433 118.565 333.167 110.031 339.3C96.4313 349.167 89.6313 355.967 89.6313 359.7C89.6313 361.833 91.7646 362.9 96.0313 362.9C105.365 362.9 119.765 357.167 139.231 345.7C152.031 338.233 164.165 329.833 175.631 320.5C187.098 310.9 196.298 301.433 203.231 292.1C210.431 282.767 214.031 274.367 214.031 266.9C214.031 258.367 208.965 251.7 198.831 246.9C189.231 251.967 179.231 256.9 168.831 261.7C158.431 266.233 148.565 270.367 139.231 274.1C129.898 277.833 121.765 280.633 114.831 282.5C108.165 284.367 103.631 285.033 101.231 284.5C93.2313 282.9 89.2313 279.967 89.2313 275.7C89.2313 271.967 91.7646 267.7 96.8313 262.9C102.165 258.1 108.031 253.7 114.431 249.7C121.098 245.7 126.431 243.033 130.431 241.7C145.631 236.367 160.165 233.7 174.031 233.7C183.631 233.7 192.565 235.167 200.831 238.1C210.431 233.3 220.298 226.5 230.431 217.7C240.831 208.9 250.031 199.433 258.031 189.3C266.031 179.167 271.231 169.7 273.631 160.9C274.965 155.033 275.631 150.767 275.631 148.1C275.631 137.7 271.231 130.1 262.431 125.3C253.898 120.233 242.298 117.7 227.631 117.7C205.498 117.7 179.631 122.367 150.031 131.7C130.298 137.833 112.031 145.167 95.2313 153.7C78.6979 161.967 65.3646 170.5 55.2313 179.3C45.0979 187.833 39.6313 195.967 38.8313 203.7C38.5646 206.1 37.6313 207.967 36.0313 209.3C34.4313 210.633 32.6979 211.3 30.8313 211.3C27.6313 211.3 26.0313 209.3 26.0313 205.3C26.0313 191.7 37.8979 177.3 61.6313 162.1C73.6313 154.1 86.9646 146.767 101.631 140.1C116.565 133.167 132.031 127.167 148.031 122.1C164.031 117.033 179.631 113.167 194.831 110.5C210.298 107.567 224.431 106.1 237.231 106.1C254.565 106.1 268.165 108.9 278.031 114.5C288.165 120.1 293.231 128.9 293.231 140.9C293.231 145.433 292.431 150.5 290.831 156.1C287.898 167.033 282.165 177.833 273.631 188.5C265.098 199.167 255.098 209.033 243.631 218.1C232.165 226.9 220.298 234.5 208.031 240.9C222.965 250.5 230.431 261.3 230.431 273.3C230.431 287.967 221.098 303.033 202.431 318.5C193.098 326.233 182.831 333.433 171.631 340.1C160.431 346.767 149.231 352.633 138.031 357.7C126.831 362.767 116.565 366.767 107.231 369.7C97.8979 372.633 90.4313 374.1 84.8313 374.1ZM61.6313 361.3C54.6979 359.967 49.7646 357.567 46.8313 354.1C44.1646 350.633 42.8313 345.567 42.8313 338.9C42.8313 337.567 42.9646 335.567 43.2313 332.9C43.4979 330.233 43.8979 326.767 44.4313 322.5C45.7646 313.167 49.2313 302.233 54.8313 289.7C60.6979 277.167 67.7646 263.967 76.0313 250.1C84.5646 236.233 93.6313 222.633 103.231 209.3C113.098 195.967 122.831 183.833 132.431 172.9L130.031 173.3C128.698 173.3 128.031 172.633 128.031 171.3C128.031 170.233 128.965 167.967 130.831 164.5C134.031 158.633 137.765 154.233 142.031 151.3C144.165 149.7 145.765 148.5 146.831 147.7C147.898 146.9 148.565 146.367 148.831 146.1C150.165 144.767 152.298 144.1 155.231 144.1C158.698 144.1 161.898 145.033 164.831 146.9C168.031 148.767 169.631 150.633 169.631 152.5C169.631 153.3 168.965 154.367 167.631 155.7C155.898 166.1 142.031 181.7 126.031 202.5C115.098 216.633 104.831 230.9 95.2313 245.3C85.6313 259.7 77.6313 272.9 71.2313 284.9C65.0979 296.9 61.4979 306.633 60.4313 314.1L58.4313 322.1C58.1646 322.633 57.8979 323.567 57.6313 324.9C57.6313 326.233 57.3646 327.967 56.8313 330.1C55.7646 333.567 55.2313 337.033 55.2313 340.5C55.2313 346.367 57.4979 349.967 62.0313 351.3C65.4979 351.833 67.2313 353.833 67.2313 357.3C67.2313 360.5 65.3646 361.833 61.6313 361.3ZM113.631 273.3C114.698 273.833 115.765 274.1 116.831 274.1C121.098 274.1 128.965 271.833 140.431 267.3C147.898 264.367 155.765 261.033 164.031 257.3C172.565 253.3 181.365 248.9 190.431 244.1C188.298 243.567 185.765 243.167 182.831 242.9C180.165 242.633 177.365 242.5 174.431 242.5C163.498 242.5 152.565 244.9 141.631 249.7H141.231C136.965 251.567 132.965 253.433 129.231 255.3C125.765 257.167 122.565 258.767 119.631 260.1C114.031 262.767 111.231 265.833 111.231 269.3C111.231 270.633 112.031 271.967 113.631 273.3ZM299.338 357.3C298.804 357.3 298.271 357.167 297.738 356.9C297.204 356.9 296.671 356.767 296.138 356.5C292.404 354.633 290.004 351.967 288.938 348.5C287.871 345.033 287.604 340.633 288.138 335.3C288.671 333.167 289.204 329.433 289.738 324.1C290.538 318.767 291.471 314.5 292.538 311.3L272.138 330.9L260.938 341.7C253.204 349.433 246.804 353.3 241.738 353.3C239.604 353.3 237.871 352.5 236.538 350.9C234.138 347.967 232.938 344.367 232.938 340.1C232.938 334.5 234.404 328.5 237.338 322.1C240.271 315.7 243.738 309.567 247.738 303.7C251.738 297.567 255.338 292.5 258.538 288.5C266.538 278.633 274.271 270.9 281.737 265.3C289.471 259.7 297.471 256.9 305.738 256.9C310.271 256.9 314.671 257.7 318.938 259.3C323.471 260.9 327.604 263.567 331.338 267.3L331.737 267.7C331.737 268.5 331.071 269.3 329.738 270.1C329.204 270.633 328.671 271.033 328.138 271.3C327.871 271.567 327.604 271.833 327.338 272.1C324.138 275.3 320.538 280.633 316.538 288.1C312.538 295.567 309.071 303.433 306.138 311.7C303.204 319.7 301.738 326.633 301.738 332.5C301.738 337.833 303.071 341.433 305.738 343.3C307.071 344.1 308.538 344.5 310.138 344.5C313.604 344.5 318.404 342.367 324.538 338.1C324.804 337.833 325.338 337.433 326.138 336.9C327.204 336.1 328.671 335.033 330.538 333.7C332.671 332.1 334.404 331.3 335.738 331.3C337.071 331.3 337.738 331.833 337.738 332.9C337.738 334.5 336.671 336.367 334.537 338.5C332.938 339.833 331.071 341.3 328.938 342.9C327.071 344.5 324.804 346.1 322.138 347.7C318.138 350.633 314.004 352.9 309.738 354.5C305.471 356.367 302.004 357.3 299.338 357.3ZM254.138 331.7C259.738 331.7 270.138 323.433 285.338 306.9C289.338 302.367 292.938 298.1 296.138 294.1C299.338 289.833 302.271 285.7 304.938 281.7C309.738 273.967 311.338 268.633 309.738 265.7C308.938 264.1 307.338 263.3 304.938 263.3C302.004 263.3 298.004 264.9 292.938 268.1C287.871 271.033 282.671 274.9 277.338 279.7C272.271 284.5 267.604 289.3 263.338 294.1C260.404 297.833 257.471 303.033 254.538 309.7C251.604 316.367 250.138 321.833 250.138 326.1C250.138 329.833 251.471 331.7 254.138 331.7ZM352.934 354.9C349.468 354.9 347.734 351.833 347.734 345.7C347.734 340.633 348.934 335.7 351.334 330.9C357.468 319.167 363.068 307.567 368.134 296.1C371.601 289.167 374.801 282.5 377.734 276.1C380.934 269.7 383.868 263.833 386.534 258.5C388.134 256.9 389.734 256.1 391.334 256.1C394.801 256.1 395.868 257.7 394.534 260.9C394.001 262.767 393.201 265.033 392.134 267.7C391.334 270.1 390.268 273.033 388.934 276.5C384.668 287.7 382.134 295.567 381.334 300.1C388.801 293.433 396.401 287.3 404.134 281.7C412.134 275.833 419.601 271.033 426.534 267.3C433.468 263.567 439.334 261.7 444.134 261.7C448.401 261.7 450.534 263.433 450.534 266.9C450.534 269.833 449.201 273.033 446.534 276.5C443.868 279.7 441.201 281.3 438.534 281.3C437.201 281.3 436.134 280.9 435.334 280.1C434.534 279.833 432.934 279.7 430.534 279.7C422.001 279.7 413.068 283.833 403.734 292.1C393.868 300.367 384.934 310.367 376.934 322.1C368.934 333.567 363.068 343.567 359.334 352.1C357.468 353.967 355.334 354.9 352.934 354.9ZM432.641 364.5C426.507 364.5 423.441 361.167 423.441 354.5C423.441 349.433 424.774 344.1 427.441 338.5L455.841 276.5C457.974 271.967 460.907 265.967 464.641 258.5C468.374 250.767 472.907 241.433 478.241 230.5C478.774 229.433 479.307 228.233 479.841 226.9C480.641 225.567 481.441 224.233 482.241 222.9C483.841 219.967 485.441 216.767 487.041 213.3L491.841 203.3C496.907 192.633 501.307 184.233 505.041 178.1C509.041 171.7 513.441 166.9 518.241 163.7C524.374 159.967 528.241 158.1 529.841 158.1C531.707 158.1 533.707 159.967 535.841 163.7C535.841 163.967 535.841 164.1 535.841 164.1C536.107 164.1 536.241 164.233 536.241 164.5C536.241 166.1 535.041 168.767 532.641 172.5C531.041 174.9 528.774 178.233 525.841 182.5C523.174 186.5 519.841 191.433 515.841 197.3C501.174 218.367 488.641 237.433 478.241 254.5C468.107 271.567 459.574 288.767 452.641 306.1C459.307 300.233 466.374 294.367 473.841 288.5C481.574 282.633 488.107 278.1 493.441 274.9C500.907 270.633 507.441 268.5 513.041 268.5C521.574 268.5 525.841 274.1 525.841 285.3C525.841 297.567 522.241 308.767 515.041 318.9C507.841 328.767 497.841 337.433 485.041 344.9C472.507 352.1 458.241 357.967 442.241 362.5C438.774 363.833 435.574 364.5 432.641 364.5ZM446.641 350.1C456.507 350.1 466.374 346.767 476.241 340.1C486.107 333.7 494.107 325.967 500.241 316.9C506.641 307.567 509.841 299.3 509.841 292.1C509.841 287.567 508.374 283.833 505.441 280.9C503.041 280.367 498.374 282.1 491.441 286.1C484.507 289.833 477.041 294.9 469.041 301.3C461.307 307.433 454.374 313.833 448.241 320.5C442.907 336.767 440.774 346.5 441.841 349.7L446.641 350.1ZM551.906 350.9C546.306 350.9 541.373 349.433 537.106 346.5C530.173 341.167 526.706 333.167 526.706 322.5C526.706 311.833 530.44 300.5 537.906 288.5C545.373 276.5 556.706 265.433 571.906 255.3C574.573 253.433 578.173 252.5 582.706 252.5C588.573 252.5 593.773 254.1 598.306 257.3C603.106 260.5 604.973 264.633 603.906 269.7C602.04 277.967 597.906 285.3 591.506 291.7C585.373 298.1 578.04 303.833 569.506 308.9C561.24 313.7 552.706 318.367 543.906 322.9C543.64 323.7 543.373 324.5 543.106 325.3C543.106 326.1 543.106 326.9 543.106 327.7C543.106 331.433 544.306 334.767 546.706 337.7C549.373 340.367 552.973 341.7 557.506 341.7C560.973 341.7 563.906 341.167 566.306 340.1C570.573 338.5 574.04 337.033 576.706 335.7C579.64 334.367 582.973 332.367 586.706 329.7C590.44 327.033 595.506 323.033 601.906 317.7C604.84 315.567 606.573 314.5 607.106 314.5C608.706 314.5 609.24 315.7 608.706 318.1C606.04 322.367 601.373 327.033 594.706 332.1C588.306 337.167 581.106 341.567 573.106 345.3C565.373 349.033 558.306 350.9 551.906 350.9ZM546.306 312.1C548.44 312.1 552.84 309.967 559.506 305.7C566.173 301.433 572.44 296.767 578.306 291.7C588.44 282.367 593.506 275.167 593.506 270.1C593.506 268.767 593.106 267.567 592.306 266.5C591.506 265.167 590.306 264.5 588.706 264.5C583.64 264.5 575.106 270.5 563.106 282.5C554.84 290.5 549.24 300.367 546.306 312.1ZM608.403 354.9C604.936 354.9 603.203 351.833 603.203 345.7C603.203 340.633 604.403 335.7 606.803 330.9C612.936 319.167 618.536 307.567 623.603 296.1C627.07 289.167 630.27 282.5 633.203 276.1C636.403 269.7 639.336 263.833 642.003 258.5C643.603 256.9 645.203 256.1 646.803 256.1C650.27 256.1 651.336 257.7 650.003 260.9C649.47 262.767 648.67 265.033 647.603 267.7C646.803 270.1 645.736 273.033 644.403 276.5C640.136 287.7 637.603 295.567 636.803 300.1C644.27 293.433 651.87 287.3 659.603 281.7C667.603 275.833 675.07 271.033 682.003 267.3C688.936 263.567 694.803 261.7 699.603 261.7C703.87 261.7 706.003 263.433 706.003 266.9C706.003 269.833 704.67 273.033 702.003 276.5C699.336 279.7 696.67 281.3 694.003 281.3C692.67 281.3 691.603 280.9 690.803 280.1C690.003 279.833 688.403 279.7 686.003 279.7C677.47 279.7 668.536 283.833 659.203 292.1C649.336 300.367 640.403 310.367 632.403 322.1C624.403 333.567 618.536 343.567 614.803 352.1C612.936 353.967 610.803 354.9 608.403 354.9ZM764.431 406.5C750.298 406.5 739.365 402.367 731.631 394.1C723.631 385.833 719.631 374.633 719.631 360.5C719.631 357.033 719.898 353.7 720.431 350.5C720.698 347.3 721.098 344.367 721.631 341.7C726.431 319.033 738.565 293.033 758.031 263.7C770.831 243.967 785.098 226.1 800.831 210.1C816.831 194.1 833.231 181.3 850.031 171.7C867.098 162.1 883.498 157.3 899.231 157.3C908.298 157.3 914.965 159.833 919.231 164.9C923.498 169.7 925.631 176.233 925.631 184.5C925.631 194.1 923.231 205.167 918.431 217.7C913.365 230.233 907.098 242.1 899.631 253.3C892.431 264.233 885.365 272.233 878.431 277.3C877.365 278.367 876.165 278.9 874.831 278.9C873.765 278.9 873.231 278.233 873.231 276.9C873.231 273.967 875.098 271.033 878.831 268.1C882.298 265.7 886.031 261.567 890.031 255.7C894.298 249.567 898.298 242.767 902.031 235.3C906.031 227.833 909.231 220.367 911.631 212.9C914.298 205.433 915.631 199.033 915.631 193.7C915.631 180.9 909.231 174.5 896.431 174.5C872.165 174.5 848.698 183.833 826.031 202.5C810.831 214.767 796.965 229.167 784.431 245.7C772.165 261.967 761.631 278.633 752.831 295.7C744.298 312.767 738.031 328.9 734.031 344.1C732.431 349.967 731.631 355.833 731.631 361.7C731.631 373.167 734.965 382.233 741.631 388.9C748.031 395.567 756.831 398.367 768.031 397.3C788.565 395.433 811.231 387.3 836.031 372.9C852.298 363.3 868.031 352.5 883.231 340.5C898.431 328.5 912.565 315.967 925.631 302.9C938.698 289.567 950.031 276.767 959.631 264.5L940.431 267.3C934.565 268.1 929.631 269.033 925.631 270.1C921.898 270.9 919.365 271.567 918.031 272.1C917.498 272.367 916.831 272.5 916.031 272.5C914.431 272.5 913.631 271.3 913.631 268.9C913.631 266.5 914.431 263.7 916.031 260.5C917.898 257.3 919.898 255.167 922.031 254.1C929.231 250.367 946.431 247.567 973.631 245.7C985.365 232.367 997.498 219.033 1010.03 205.7C1023.36 191.3 1034.56 179.033 1043.63 168.9C1052.7 158.767 1060.7 149.433 1067.63 140.9C1074.83 132.1 1081.76 123.033 1088.43 113.7C1090.56 110.767 1092.7 109.3 1094.83 109.3C1096.43 109.3 1097.23 110.1 1097.23 111.7C1097.23 113.3 1096.7 114.633 1095.63 115.7C1086.56 128.5 1077.1 141.033 1067.23 153.3C1057.36 165.567 1046.43 178.633 1034.43 192.5C1022.7 206.1 1009.36 221.567 994.431 238.9L989.231 244.9L1007.63 244.1L1042.83 242.9C1042.56 243.433 1043.76 241.033 1046.43 235.7C1049.1 230.1 1053.1 221.567 1058.43 210.1C1065.9 194.633 1072.43 180.9 1078.03 168.9C1083.9 156.633 1088.7 146.1 1092.43 137.3C1100.16 119.967 1104.16 107.967 1104.43 101.3C1104.7 97.8333 1106.43 95.1667 1109.63 93.3C1112.83 91.4333 1116.43 90.5 1120.43 90.5C1123.36 90.5 1126.03 91.0333 1128.43 92.1C1131.1 92.9 1132.7 93.9667 1133.23 95.3C1134.56 97.7 1132.56 104.1 1127.23 114.5C1123.76 121.7 1119.5 129.967 1114.43 139.3C1109.36 148.633 1103.63 159.033 1097.23 170.5C1088.43 186.233 1080.83 200.1 1074.43 212.1C1068.3 224.1 1063.36 234.233 1059.63 242.5L1090.43 240.9H1091.63C1094.03 240.9 1095.23 241.7 1095.23 243.3C1095.23 244.367 1094.56 245.433 1093.23 246.5C1091.9 247.567 1090.16 248.233 1088.03 248.5L1055.63 250.9C1055.36 251.433 1053.9 254.633 1051.23 260.5C1048.56 266.367 1044.7 274.767 1039.63 285.7C1029.5 308.1 1024.43 327.167 1024.43 342.9C1024.43 353.567 1028.43 358.9 1036.43 358.9C1038.56 358.9 1041.36 357.833 1044.83 355.7C1048.56 353.833 1052.03 351.567 1055.23 348.9C1058.7 346.233 1061.23 343.833 1062.83 341.7C1064.7 339.033 1066.56 337.7 1068.43 337.7C1069.5 337.7 1070.03 338.233 1070.03 339.3C1070.03 340.633 1068.96 342.367 1066.83 344.5C1064.16 347.433 1060.7 350.767 1056.43 354.5C1052.16 358.233 1047.9 361.433 1043.63 364.1C1039.36 366.767 1035.76 368.233 1032.83 368.5C1015.76 369.567 1007.23 361.833 1007.23 345.3C1007.23 335.433 1009.63 324.1 1014.43 311.3C1019.5 298.5 1025.76 283.567 1033.23 266.5L1039.63 252.1C1030.56 252.9 1018.16 254.9 1002.43 258.1C996.831 259.167 991.765 260.1 987.231 260.9C982.965 261.433 979.365 261.967 976.431 262.5C960.698 280.367 943.765 297.833 925.631 314.9C907.498 331.967 888.965 347.433 870.031 361.3C851.365 375.167 832.965 386.1 814.831 394.1C796.965 402.367 780.165 406.5 764.431 406.5ZM1017.18 462.1C1014.51 462.1 1012.65 461.833 1011.58 461.3C1010.78 460.5 1009.98 459.567 1009.18 458.5C1008.38 457.433 1007.98 456.5 1007.98 455.7C1008.51 444.233 1012.11 431.167 1018.78 416.5C1025.45 401.833 1034.25 386.5 1045.18 370.5C1055.85 354.5 1067.31 339.167 1079.58 324.5C1090.51 311.167 1098.11 301.167 1102.38 294.5C1105.85 288.633 1109.85 280.1 1114.38 268.9C1119.18 257.433 1124.51 243.433 1130.38 226.9C1130.91 225.3 1132.91 224.233 1136.38 223.7C1140.65 223.7 1142.78 226.9 1142.78 233.3C1142.78 236.767 1142.38 239.3 1141.58 240.9C1141.31 242.233 1140.91 243.567 1140.38 244.9C1140.11 245.967 1139.85 246.767 1139.58 247.3C1138.78 248.9 1138.38 249.967 1138.38 250.5C1138.38 250.5 1138.51 250.9 1138.78 251.7C1139.05 252.5 1139.31 253.567 1139.58 254.9C1148.38 250.633 1156.11 247.3 1162.78 244.9C1169.45 242.233 1175.85 240.9 1181.98 240.9C1189.18 240.9 1194.11 243.3 1196.78 248.1C1197.58 249.7 1197.98 251.7 1197.98 254.1C1197.98 259.967 1195.71 267.433 1191.18 276.5C1186.65 285.3 1180.78 294.5 1173.58 304.1C1166.65 313.433 1159.05 321.833 1150.78 329.3C1147.85 331.967 1143.58 334.9 1137.98 338.1C1132.65 341.3 1126.78 344.233 1120.38 346.9C1114.25 349.833 1108.25 352.233 1102.38 354.1C1096.78 355.967 1092.38 356.9 1089.18 356.9C1085.71 364.1 1082.25 371.033 1078.78 377.7C1075.31 384.633 1071.71 391.3 1067.98 397.7C1050.91 428.1 1035.71 449.3 1022.38 461.3C1021.85 461.833 1020.11 462.1 1017.18 462.1ZM1097.58 339.7C1110.11 337.567 1123.45 332.1 1137.58 323.3C1151.71 314.5 1163.45 303.967 1172.78 291.7C1182.11 279.433 1186.38 267.167 1185.58 254.9C1183.98 250.1 1180.65 247.7 1175.58 247.7C1172.11 247.7 1167.71 248.9 1162.38 251.3C1157.31 253.7 1152.11 256.767 1146.78 260.5C1141.45 264.233 1136.65 267.967 1132.38 271.7C1128.38 275.433 1125.58 278.633 1123.98 281.3C1122.65 283.167 1121.05 286.5 1119.18 291.3C1118.11 293.433 1117.31 295.3 1116.78 296.9C1116.25 298.5 1115.85 299.567 1115.58 300.1C1114.25 303.567 1112.65 307.433 1110.78 311.7C1108.91 315.7 1106.91 319.967 1104.78 324.5L1097.58 339.7ZM1021.98 438.5C1021.98 439.567 1022.25 440.1 1022.78 440.1C1024.11 440.1 1026.51 438.1 1029.98 434.1C1035.58 428.233 1039.85 422.9 1042.78 418.1C1048.11 409.567 1053.18 401.033 1057.98 392.5C1062.51 383.967 1066.91 375.433 1071.18 366.9C1079.98 349.833 1083.71 339.433 1082.38 335.7C1078.38 339.7 1073.71 345.433 1068.38 352.9C1062.78 360.633 1057.18 369.167 1051.58 378.5C1045.71 387.833 1040.38 397.033 1035.58 406.1C1030.51 415.433 1026.65 423.7 1023.98 430.9C1022.65 435.433 1021.98 437.967 1021.98 438.5ZM1125.77 462.1C1123.11 462.1 1121.24 461.833 1120.17 461.3C1119.37 460.5 1118.57 459.567 1117.77 458.5C1116.97 457.433 1116.57 456.5 1116.57 455.7C1117.11 444.233 1120.71 431.167 1127.38 416.5C1134.04 401.833 1142.84 386.5 1153.77 370.5C1164.44 354.5 1175.91 339.167 1188.18 324.5C1199.11 311.167 1206.71 301.167 1210.98 294.5C1214.44 288.633 1218.44 280.1 1222.98 268.9C1227.78 257.433 1233.11 243.433 1238.98 226.9C1239.51 225.3 1241.51 224.233 1244.98 223.7C1249.24 223.7 1251.38 226.9 1251.38 233.3C1251.38 236.767 1250.98 239.3 1250.18 240.9C1249.91 242.233 1249.51 243.567 1248.98 244.9C1248.71 245.967 1248.44 246.767 1248.18 247.3C1247.38 248.9 1246.98 249.967 1246.98 250.5C1246.98 250.5 1247.11 250.9 1247.38 251.7C1247.64 252.5 1247.91 253.567 1248.18 254.9C1256.98 250.633 1264.71 247.3 1271.38 244.9C1278.04 242.233 1284.44 240.9 1290.58 240.9C1297.78 240.9 1302.71 243.3 1305.38 248.1C1306.18 249.7 1306.58 251.7 1306.58 254.1C1306.58 259.967 1304.31 267.433 1299.78 276.5C1295.24 285.3 1289.38 294.5 1282.18 304.1C1275.24 313.433 1267.64 321.833 1259.38 329.3C1256.44 331.967 1252.18 334.9 1246.58 338.1C1241.24 341.3 1235.38 344.233 1228.98 346.9C1222.84 349.833 1216.84 352.233 1210.98 354.1C1205.38 355.967 1200.98 356.9 1197.78 356.9C1194.31 364.1 1190.84 371.033 1187.38 377.7C1183.91 384.633 1180.31 391.3 1176.57 397.7C1159.51 428.1 1144.31 449.3 1130.97 461.3C1130.44 461.833 1128.71 462.1 1125.77 462.1ZM1206.18 339.7C1218.71 337.567 1232.04 332.1 1246.18 323.3C1260.31 314.5 1272.04 303.967 1281.38 291.7C1290.71 279.433 1294.98 267.167 1294.18 254.9C1292.58 250.1 1289.24 247.7 1284.18 247.7C1280.71 247.7 1276.31 248.9 1270.98 251.3C1265.91 253.7 1260.71 256.767 1255.38 260.5C1250.04 264.233 1245.24 267.967 1240.98 271.7C1236.98 275.433 1234.18 278.633 1232.58 281.3C1231.24 283.167 1229.64 286.5 1227.78 291.3C1226.71 293.433 1225.91 295.3 1225.38 296.9C1224.84 298.5 1224.44 299.567 1224.18 300.1C1222.84 303.567 1221.24 307.433 1219.38 311.7C1217.51 315.7 1215.51 319.967 1213.38 324.5L1206.18 339.7ZM1130.57 438.5C1130.57 439.567 1130.84 440.1 1131.37 440.1C1132.71 440.1 1135.11 438.1 1138.57 434.1C1144.17 428.233 1148.44 422.9 1151.37 418.1C1156.71 409.567 1161.77 401.033 1166.57 392.5C1171.11 383.967 1175.51 375.433 1179.78 366.9C1188.58 349.833 1192.31 339.433 1190.98 335.7C1186.98 339.7 1182.31 345.433 1176.97 352.9C1171.37 360.633 1165.77 369.167 1160.17 378.5C1154.31 387.833 1148.97 397.033 1144.17 406.1C1139.11 415.433 1135.24 423.7 1132.57 430.9C1131.24 435.433 1130.57 437.967 1130.57 438.5Z" fill="white"/>
</svg>
