<svg width="1024" height="1024" viewBox="0 0 1024 1024" fill="none" xmlns="http://www.w3.org/2000/svg">
<g clip-path="url(#clip0_1_196)">
<rect width="1024" height="1024" fill="#F8F9FA"/>
<path d="M855 -1V1024" stroke="#E1E4E8" stroke-width="6"/>
<path d="M684 -1V1024" stroke="#E1E4E8" stroke-width="6"/>
<path d="M513 -1V1024" stroke="#E1E4E8" stroke-width="6"/>
<path d="M342 -1V1024" stroke="#E1E4E8" stroke-width="6"/>
<path d="M171 -1V1024" stroke="#E1E4E8" stroke-width="6"/>
<path d="M1024 854L-1 854" stroke="#E1E4E8" stroke-width="6"/>
<path d="M1024 683L-1 683" stroke="#E1E4E8" stroke-width="6"/>
<path d="M1024 512L-1 512" stroke="#E1E4E8" stroke-width="6"/>
<path d="M1024 341L-1 341" stroke="#E1E4E8" stroke-width="6"/>
<path d="M1024 170L-1 170" stroke="#E1E4E8" stroke-width="6"/>
<circle cx="512" cy="511" r="337" stroke="#D1D5DA" stroke-width="12"/>
<circle cx="512" cy="512" r="166" stroke="#D1D5DA" stroke-width="12"/>
<circle cx="512" cy="512" r="438" stroke="#D1D5DA" stroke-width="12"/>
<rect x="1" width="1024" height="1024" fill="#202024"/>
<path d="M261.824 777.939C258.944 777.939 257.504 776.799 257.504 774.519C257.504 772.239 259.004 769.419 262.004 766.059C264.764 763.059 269.264 759.879 275.504 756.519C281.744 753.039 288.884 749.979 296.924 747.339C298.724 746.739 300.164 746.439 301.244 746.439C302.684 746.439 303.404 746.739 303.404 747.339C303.404 747.939 302.684 748.419 301.244 748.779C296.204 750.099 291.224 752.019 286.304 754.539C281.384 756.939 277.004 759.519 273.164 762.279C267.044 766.719 263.984 769.779 263.984 771.459C263.984 772.419 264.944 772.899 266.864 772.899C271.064 772.899 277.544 770.319 286.304 765.159C292.064 761.799 297.524 758.019 302.684 753.819C307.844 749.499 311.984 745.239 315.104 741.039C318.344 736.839 319.964 733.059 319.964 729.699C319.964 725.859 317.684 722.859 313.124 720.699C308.804 722.979 304.304 725.199 299.624 727.359C294.944 729.399 290.504 731.259 286.304 732.939C282.104 734.619 278.444 735.879 275.324 736.719C272.324 737.559 270.284 737.859 269.204 737.619C265.604 736.899 263.804 735.579 263.804 733.659C263.804 731.979 264.944 730.059 267.224 727.899C269.624 725.739 272.264 723.759 275.144 721.959C278.144 720.159 280.544 718.959 282.344 718.359C289.184 715.959 295.724 714.759 301.964 714.759C306.284 714.759 310.304 715.419 314.024 716.739C318.344 714.579 322.784 711.519 327.344 707.559C332.024 703.599 336.164 699.339 339.764 694.779C343.364 690.219 345.704 685.959 346.784 681.999C347.384 679.359 347.684 677.439 347.684 676.239C347.684 671.559 345.704 668.139 341.744 665.979C337.904 663.699 332.684 662.559 326.084 662.559C316.124 662.559 304.484 664.659 291.164 668.859C282.284 671.619 274.064 674.919 266.504 678.759C259.064 682.479 253.064 686.319 248.504 690.279C243.944 694.119 241.484 697.779 241.124 701.259C241.004 702.339 240.584 703.179 239.864 703.779C239.144 704.379 238.364 704.679 237.524 704.679C236.084 704.679 235.364 703.779 235.364 701.979C235.364 695.859 240.704 689.379 251.384 682.539C256.784 678.939 262.784 675.639 269.384 672.639C276.104 669.519 283.064 666.819 290.264 664.539C297.464 662.259 304.484 660.519 311.324 659.319C318.284 657.999 324.644 657.339 330.404 657.339C338.204 657.339 344.324 658.599 348.764 661.119C353.324 663.639 355.604 667.599 355.604 672.999C355.604 675.039 355.244 677.319 354.524 679.839C353.204 684.759 350.624 689.619 346.784 694.419C342.944 699.219 338.444 703.659 333.284 707.739C328.124 711.699 322.784 715.119 317.264 717.999C323.984 722.319 327.344 727.179 327.344 732.579C327.344 739.179 323.144 745.959 314.744 752.919C310.544 756.399 305.924 759.639 300.884 762.639C295.844 765.639 290.804 768.279 285.764 770.559C280.724 772.839 276.104 774.639 271.904 775.959C267.704 777.279 264.344 777.939 261.824 777.939ZM251.384 772.179C248.264 771.579 246.044 770.499 244.724 768.939C243.524 767.379 242.924 765.099 242.924 762.099C242.924 761.499 242.984 760.599 243.104 759.399C243.224 758.199 243.404 756.639 243.644 754.719C244.244 750.519 245.804 745.599 248.324 739.959C250.964 734.319 254.144 728.379 257.864 722.139C261.704 715.899 265.784 709.779 270.104 703.779C274.544 697.779 278.924 692.319 283.244 687.399L282.164 687.579C281.564 687.579 281.264 687.279 281.264 686.679C281.264 686.199 281.684 685.179 282.524 683.619C283.964 680.979 285.644 678.999 287.564 677.679C288.524 676.959 289.244 676.419 289.724 676.059C290.204 675.699 290.504 675.459 290.624 675.339C291.224 674.739 292.184 674.439 293.504 674.439C295.064 674.439 296.504 674.859 297.824 675.699C299.264 676.539 299.984 677.379 299.984 678.219C299.984 678.579 299.684 679.059 299.084 679.659C293.804 684.339 287.564 691.359 280.364 700.719C275.444 707.079 270.824 713.499 266.504 719.979C262.184 726.459 258.584 732.399 255.704 737.799C252.944 743.199 251.324 747.579 250.844 750.939L249.944 754.539C249.824 754.779 249.704 755.199 249.584 755.799C249.584 756.399 249.464 757.179 249.224 758.139C248.744 759.699 248.504 761.259 248.504 762.819C248.504 765.459 249.524 767.079 251.564 767.679C253.124 767.919 253.904 768.819 253.904 770.379C253.904 771.819 253.064 772.419 251.384 772.179ZM274.784 732.579C275.264 732.819 275.744 732.939 276.224 732.939C278.144 732.939 281.684 731.919 286.844 729.879C290.204 728.559 293.744 727.059 297.464 725.379C301.304 723.579 305.264 721.599 309.344 719.439C308.384 719.199 307.244 719.019 305.924 718.899C304.724 718.779 303.464 718.719 302.144 718.719C297.224 718.719 292.304 719.799 287.384 721.959H287.204C285.284 722.799 283.484 723.639 281.804 724.479C280.244 725.319 278.804 726.039 277.484 726.639C274.964 727.839 273.704 729.219 273.704 730.779C273.704 731.379 274.064 731.979 274.784 732.579ZM358.352 770.379C358.112 770.379 357.872 770.319 357.632 770.199C357.392 770.199 357.152 770.139 356.912 770.019C355.232 769.179 354.152 767.979 353.672 766.419C353.192 764.859 353.072 762.879 353.312 760.479C353.552 759.519 353.792 757.839 354.032 755.439C354.392 753.039 354.812 751.119 355.292 749.679L346.112 758.499L341.072 763.359C337.592 766.839 334.712 768.579 332.432 768.579C331.472 768.579 330.692 768.219 330.092 767.499C329.012 766.179 328.472 764.559 328.472 762.639C328.472 760.119 329.132 757.419 330.452 754.539C331.772 751.659 333.332 748.899 335.132 746.259C336.932 743.499 338.552 741.219 339.992 739.419C343.592 734.979 347.072 731.499 350.432 728.979C353.912 726.459 357.512 725.199 361.232 725.199C363.272 725.199 365.252 725.559 367.172 726.279C369.212 726.999 371.072 728.199 372.752 729.879L372.932 730.059C372.932 730.419 372.632 730.779 372.032 731.139C371.792 731.379 371.552 731.559 371.312 731.679C371.192 731.799 371.072 731.919 370.952 732.039C369.512 733.479 367.892 735.879 366.092 739.239C364.292 742.599 362.732 746.139 361.412 749.859C360.092 753.459 359.432 756.579 359.432 759.219C359.432 761.619 360.032 763.239 361.232 764.079C361.832 764.439 362.492 764.619 363.212 764.619C364.772 764.619 366.932 763.659 369.692 761.739C369.812 761.619 370.052 761.439 370.412 761.199C370.892 760.839 371.552 760.359 372.392 759.759C373.352 759.039 374.132 758.679 374.732 758.679C375.332 758.679 375.632 758.919 375.632 759.399C375.632 760.119 375.152 760.959 374.192 761.919C373.472 762.519 372.632 763.179 371.672 763.899C370.832 764.619 369.812 765.339 368.612 766.059C366.812 767.379 364.952 768.399 363.032 769.119C361.112 769.959 359.552 770.379 358.352 770.379ZM338.012 758.859C340.532 758.859 345.212 755.139 352.052 747.699C353.852 745.659 355.472 743.739 356.912 741.939C358.352 740.019 359.672 738.159 360.872 736.359C363.032 732.879 363.752 730.479 363.032 729.159C362.672 728.439 361.952 728.079 360.872 728.079C359.552 728.079 357.752 728.799 355.472 730.239C353.192 731.559 350.852 733.299 348.452 735.459C346.172 737.619 344.072 739.779 342.152 741.939C340.832 743.619 339.512 745.959 338.192 748.959C336.872 751.959 336.212 754.419 336.212 756.339C336.212 758.019 336.812 758.859 338.012 758.859ZM382.47 769.299C380.91 769.299 380.13 767.919 380.13 765.159C380.13 762.879 380.67 760.659 381.75 758.499C384.51 753.219 387.03 747.999 389.31 742.839C390.87 739.719 392.31 736.719 393.63 733.839C395.07 730.959 396.39 728.319 397.59 725.919C398.31 725.199 399.03 724.839 399.75 724.839C401.31 724.839 401.79 725.559 401.19 726.999C400.95 727.839 400.59 728.859 400.11 730.059C399.75 731.139 399.27 732.459 398.67 734.019C396.75 739.059 395.61 742.599 395.25 744.639C398.61 741.639 402.03 738.879 405.51 736.359C409.11 733.719 412.47 731.559 415.59 729.879C418.71 728.199 421.35 727.359 423.51 727.359C425.43 727.359 426.39 728.139 426.39 729.699C426.39 731.019 425.79 732.459 424.59 734.019C423.39 735.459 422.19 736.179 420.99 736.179C420.39 736.179 419.91 735.999 419.55 735.639C419.19 735.519 418.47 735.459 417.39 735.459C413.55 735.459 409.53 737.319 405.33 741.039C400.89 744.759 396.87 749.259 393.27 754.539C389.67 759.699 387.03 764.199 385.35 768.039C384.51 768.879 383.55 769.299 382.47 769.299ZM418.338 773.619C415.578 773.619 414.198 772.119 414.198 769.119C414.198 766.839 414.798 764.439 415.998 761.919L428.778 734.019C429.738 731.979 431.058 729.279 432.738 725.919C434.418 722.439 436.458 718.239 438.858 713.319C439.098 712.839 439.338 712.299 439.578 711.699C439.938 711.099 440.298 710.499 440.658 709.899C441.378 708.579 442.098 707.139 442.818 705.579L444.978 701.079C447.258 696.279 449.238 692.499 450.918 689.739C452.718 686.859 454.698 684.699 456.858 683.259C459.618 681.579 461.358 680.739 462.078 680.739C462.918 680.739 463.818 681.579 464.778 683.259C464.778 683.379 464.778 683.439 464.778 683.439C464.898 683.439 464.958 683.499 464.958 683.619C464.958 684.339 464.418 685.539 463.338 687.219C462.618 688.299 461.598 689.799 460.278 691.719C459.078 693.519 457.578 695.739 455.778 698.379C449.178 707.859 443.538 716.439 438.858 724.119C434.298 731.799 430.458 739.539 427.338 747.339C430.338 744.699 433.518 742.059 436.878 739.419C440.358 736.779 443.298 734.739 445.698 733.299C449.058 731.379 451.998 730.419 454.518 730.419C458.358 730.419 460.278 732.939 460.278 737.979C460.278 743.499 458.658 748.539 455.418 753.099C452.178 757.539 447.678 761.439 441.918 764.799C436.278 768.039 429.858 770.679 422.658 772.719C421.098 773.319 419.658 773.619 418.338 773.619ZM424.638 767.139C429.078 767.139 433.518 765.639 437.958 762.639C442.398 759.759 445.998 756.279 448.758 752.199C451.638 747.999 453.078 744.279 453.078 741.039C453.078 738.999 452.418 737.319 451.098 735.999C450.018 735.759 447.918 736.539 444.798 738.339C441.678 740.019 438.318 742.299 434.718 745.179C431.238 747.939 428.118 750.819 425.358 753.819C422.958 761.139 421.998 765.519 422.478 766.959L424.638 767.139ZM472.008 767.499C469.488 767.499 467.268 766.839 465.348 765.519C462.228 763.119 460.668 759.519 460.668 754.719C460.668 749.919 462.348 744.819 465.708 739.419C469.068 734.019 474.168 729.039 481.008 724.479C482.208 723.639 483.828 723.219 485.868 723.219C488.508 723.219 490.848 723.939 492.888 725.379C495.048 726.819 495.888 728.679 495.408 730.959C494.568 734.679 492.708 737.979 489.828 740.859C487.068 743.739 483.768 746.319 479.928 748.599C476.208 750.759 472.368 752.859 468.408 754.899C468.288 755.259 468.168 755.619 468.048 755.979C468.048 756.339 468.048 756.699 468.048 757.059C468.048 758.739 468.588 760.239 469.668 761.559C470.868 762.759 472.488 763.359 474.528 763.359C476.088 763.359 477.408 763.119 478.488 762.639C480.408 761.919 481.968 761.259 483.168 760.659C484.488 760.059 485.988 759.159 487.668 757.959C489.348 756.759 491.628 754.959 494.508 752.559C495.828 751.599 496.608 751.119 496.848 751.119C497.568 751.119 497.808 751.659 497.568 752.739C496.368 754.659 494.268 756.759 491.268 759.039C488.388 761.319 485.148 763.299 481.548 764.979C478.068 766.659 474.888 767.499 472.008 767.499ZM469.488 750.039C470.448 750.039 472.428 749.079 475.428 747.159C478.428 745.239 481.248 743.139 483.888 740.859C488.448 736.659 490.728 733.419 490.728 731.139C490.728 730.539 490.548 729.999 490.188 729.519C489.828 728.919 489.288 728.619 488.568 728.619C486.288 728.619 482.448 731.319 477.048 736.719C473.328 740.319 470.808 744.759 469.488 750.039ZM497.431 769.299C495.871 769.299 495.091 767.919 495.091 765.159C495.091 762.879 495.631 760.659 496.711 758.499C499.471 753.219 501.991 747.999 504.271 742.839C505.831 739.719 507.271 736.719 508.591 733.839C510.031 730.959 511.351 728.319 512.551 725.919C513.271 725.199 513.991 724.839 514.711 724.839C516.271 724.839 516.751 725.559 516.151 726.999C515.911 727.839 515.551 728.859 515.071 730.059C514.711 731.139 514.231 732.459 513.631 734.019C511.711 739.059 510.571 742.599 510.211 744.639C513.571 741.639 516.991 738.879 520.471 736.359C524.071 733.719 527.431 731.559 530.551 729.879C533.671 728.199 536.311 727.359 538.471 727.359C540.391 727.359 541.351 728.139 541.351 729.699C541.351 731.019 540.751 732.459 539.551 734.019C538.351 735.459 537.151 736.179 535.951 736.179C535.351 736.179 534.871 735.999 534.511 735.639C534.151 735.519 533.431 735.459 532.351 735.459C528.511 735.459 524.491 737.319 520.291 741.039C515.851 744.759 511.831 749.259 508.231 754.539C504.631 759.699 501.991 764.199 500.311 768.039C499.471 768.879 498.511 769.299 497.431 769.299ZM567.644 792.519C561.284 792.519 556.364 790.659 552.884 786.939C549.284 783.219 547.484 778.179 547.484 771.819C547.484 770.259 547.604 768.759 547.844 767.319C547.964 765.879 548.144 764.559 548.384 763.359C550.544 753.159 556.004 741.459 564.764 728.259C570.524 719.379 576.944 711.339 584.024 704.139C591.224 696.939 598.604 691.179 606.164 686.859C613.844 682.539 621.224 680.379 628.304 680.379C632.384 680.379 635.384 681.519 637.304 683.799C639.224 685.959 640.184 688.899 640.184 692.619C640.184 696.939 639.104 701.919 636.944 707.559C634.664 713.199 631.844 718.539 628.484 723.579C625.244 728.499 622.064 732.099 618.944 734.379C618.464 734.859 617.924 735.099 617.324 735.099C616.844 735.099 616.604 734.799 616.604 734.199C616.604 732.879 617.444 731.559 619.124 730.239C620.684 729.159 622.364 727.299 624.164 724.659C626.084 721.899 627.884 718.839 629.564 715.479C631.364 712.119 632.804 708.759 633.884 705.399C635.084 702.039 635.684 699.159 635.684 696.759C635.684 690.999 632.804 688.119 627.044 688.119C616.124 688.119 605.564 692.319 595.364 700.719C588.524 706.239 582.284 712.719 576.644 720.159C571.124 727.479 566.384 734.979 562.424 742.659C558.584 750.339 555.764 757.599 553.964 764.439C553.244 767.079 552.884 769.719 552.884 772.359C552.884 777.519 554.384 781.599 557.384 784.599C560.264 787.599 564.224 788.859 569.264 788.379C578.504 787.539 588.704 783.879 599.864 777.399C607.184 773.079 614.264 768.219 621.104 762.819C627.944 757.419 634.304 751.779 640.184 745.899C646.064 739.899 651.164 734.139 655.484 728.619L646.844 729.879C644.204 730.239 641.984 730.659 640.184 731.139C638.504 731.499 637.364 731.799 636.764 732.039C636.524 732.159 636.224 732.219 635.864 732.219C635.144 732.219 634.784 731.679 634.784 730.599C634.784 729.519 635.144 728.259 635.864 726.819C636.704 725.379 637.604 724.419 638.564 723.939C641.804 722.259 649.544 720.999 661.784 720.159C667.064 714.159 672.524 708.159 678.164 702.159C684.164 695.679 689.204 690.159 693.284 685.599C697.364 681.039 700.964 676.839 704.084 672.999C707.324 669.039 710.444 664.959 713.444 660.759C714.404 659.439 715.364 658.779 716.324 658.779C717.044 658.779 717.404 659.139 717.404 659.859C717.404 660.579 717.164 661.179 716.684 661.659C712.604 667.419 708.344 673.059 703.904 678.579C699.464 684.099 694.544 689.979 689.144 696.219C683.864 702.339 677.864 709.299 671.144 717.099L668.804 719.799L677.084 719.439L692.924 718.899C692.804 719.139 693.344 718.059 694.544 715.659C695.744 713.139 697.544 709.299 699.944 704.139C703.304 697.179 706.244 690.999 708.764 685.599C711.404 680.079 713.564 675.339 715.244 671.379C718.724 663.579 720.524 658.179 720.644 655.179C720.764 653.619 721.544 652.419 722.984 651.579C724.424 650.739 726.044 650.319 727.844 650.319C729.164 650.319 730.364 650.559 731.444 651.039C732.644 651.399 733.364 651.879 733.604 652.479C734.204 653.559 733.304 656.439 730.904 661.119C729.344 664.359 727.424 668.079 725.144 672.279C722.864 676.479 720.284 681.159 717.404 686.319C713.444 693.399 710.024 699.639 707.144 705.039C704.384 710.439 702.164 714.999 700.484 718.719L714.344 717.999H714.884C715.964 717.999 716.504 718.359 716.504 719.079C716.504 719.559 716.204 720.039 715.604 720.519C715.004 720.999 714.224 721.299 713.264 721.419L698.684 722.499C698.564 722.739 697.904 724.179 696.704 726.819C695.504 729.459 693.764 733.239 691.484 738.159C686.924 748.239 684.644 756.819 684.644 763.899C684.644 768.699 686.444 771.099 690.044 771.099C691.004 771.099 692.264 770.619 693.824 769.659C695.504 768.819 697.064 767.799 698.504 766.599C700.064 765.399 701.204 764.319 701.924 763.359C702.764 762.159 703.604 761.559 704.444 761.559C704.924 761.559 705.164 761.799 705.164 762.279C705.164 762.879 704.684 763.659 703.724 764.619C702.524 765.939 700.964 767.439 699.044 769.119C697.124 770.799 695.204 772.239 693.284 773.439C691.364 774.639 689.744 775.299 688.424 775.419C680.744 775.899 676.904 772.419 676.904 764.979C676.904 760.539 677.984 755.439 680.144 749.679C682.424 743.919 685.244 737.199 688.604 729.519L691.484 723.039C687.404 723.399 681.824 724.299 674.744 725.739C672.224 726.219 669.944 726.639 667.904 726.999C665.984 727.239 664.364 727.479 663.044 727.719C655.964 735.759 648.344 743.619 640.184 751.299C632.024 758.979 623.684 765.939 615.164 772.179C606.764 778.419 598.484 783.339 590.324 786.939C582.284 790.659 574.724 792.519 567.644 792.519ZM681.382 817.539C680.182 817.539 679.342 817.419 678.862 817.179C678.502 816.819 678.142 816.399 677.782 815.919C677.422 815.439 677.242 815.019 677.242 814.659C677.482 809.499 679.102 803.619 682.102 797.019C685.102 790.419 689.062 783.519 693.982 776.319C698.782 769.119 703.942 762.219 709.462 755.619C714.382 749.619 717.802 745.119 719.722 742.119C721.282 739.479 723.082 735.639 725.122 730.599C727.282 725.439 729.682 719.139 732.322 711.699C732.562 710.979 733.462 710.499 735.022 710.259C736.942 710.259 737.902 711.699 737.902 714.579C737.902 716.139 737.722 717.279 737.362 717.999C737.242 718.599 737.062 719.199 736.822 719.799C736.702 720.279 736.582 720.639 736.462 720.879C736.102 721.599 735.922 722.079 735.922 722.319C735.922 722.319 735.982 722.499 736.102 722.859C736.222 723.219 736.342 723.699 736.462 724.299C740.422 722.379 743.902 720.879 746.902 719.799C749.902 718.599 752.782 717.999 755.542 717.999C758.782 717.999 761.002 719.079 762.202 721.239C762.562 721.959 762.742 722.859 762.742 723.939C762.742 726.579 761.722 729.939 759.682 734.019C757.642 737.979 755.002 742.119 751.762 746.439C748.642 750.639 745.222 754.419 741.502 757.779C740.182 758.979 738.262 760.299 735.742 761.739C733.342 763.179 730.702 764.499 727.822 765.699C725.062 767.019 722.362 768.099 719.722 768.939C717.202 769.779 715.222 770.199 713.782 770.199C712.222 773.439 710.662 776.559 709.102 779.559C707.542 782.679 705.922 785.679 704.242 788.559C696.562 802.239 689.722 811.779 683.722 817.179C683.482 817.419 682.702 817.539 681.382 817.539ZM717.562 762.459C723.202 761.499 729.202 759.039 735.562 755.079C741.922 751.119 747.202 746.379 751.402 740.859C755.602 735.339 757.522 729.819 757.162 724.299C756.442 722.139 754.942 721.059 752.662 721.059C751.102 721.059 749.122 721.599 746.722 722.679C744.442 723.759 742.102 725.139 739.702 726.819C737.302 728.499 735.142 730.179 733.222 731.859C731.422 733.539 730.162 734.979 729.442 736.179C728.842 737.019 728.122 738.519 727.282 740.679C726.802 741.639 726.442 742.479 726.202 743.199C725.962 743.919 725.782 744.399 725.662 744.639C725.062 746.199 724.342 747.939 723.502 749.859C722.662 751.659 721.762 753.579 720.802 755.619L717.562 762.459ZM683.542 806.919C683.542 807.399 683.662 807.639 683.902 807.639C684.502 807.639 685.582 806.739 687.142 804.939C689.662 802.299 691.582 799.899 692.902 797.739C695.302 793.899 697.582 790.059 699.742 786.219C701.782 782.379 703.762 778.539 705.682 774.699C709.642 767.019 711.322 762.339 710.722 760.659C708.922 762.459 706.822 765.039 704.422 768.399C701.902 771.879 699.382 775.719 696.862 779.919C694.222 784.119 691.822 788.259 689.662 792.339C687.382 796.539 685.642 800.259 684.442 803.499C683.842 805.539 683.542 806.679 683.542 806.919ZM730.249 817.539C729.049 817.539 728.209 817.419 727.729 817.179C727.369 816.819 727.009 816.399 726.649 815.919C726.289 815.439 726.109 815.019 726.109 814.659C726.349 809.499 727.969 803.619 730.969 797.019C733.969 790.419 737.929 783.519 742.849 776.319C747.649 769.119 752.809 762.219 758.329 755.619C763.249 749.619 766.669 745.119 768.589 742.119C770.149 739.479 771.949 735.639 773.989 730.599C776.149 725.439 778.549 719.139 781.189 711.699C781.429 710.979 782.329 710.499 783.889 710.259C785.809 710.259 786.769 711.699 786.769 714.579C786.769 716.139 786.589 717.279 786.229 717.999C786.109 718.599 785.929 719.199 785.689 719.799C785.569 720.279 785.449 720.639 785.329 720.879C784.969 721.599 784.789 722.079 784.789 722.319C784.789 722.319 784.849 722.499 784.969 722.859C785.089 723.219 785.209 723.699 785.329 724.299C789.289 722.379 792.769 720.879 795.769 719.799C798.769 718.599 801.649 717.999 804.409 717.999C807.649 717.999 809.869 719.079 811.069 721.239C811.429 721.959 811.609 722.859 811.609 723.939C811.609 726.579 810.589 729.939 808.549 734.019C806.509 737.979 803.869 742.119 800.629 746.439C797.509 750.639 794.089 754.419 790.369 757.779C789.049 758.979 787.129 760.299 784.609 761.739C782.209 763.179 779.569 764.499 776.689 765.699C773.929 767.019 771.229 768.099 768.589 768.939C766.069 769.779 764.089 770.199 762.649 770.199C761.089 773.439 759.529 776.559 757.969 779.559C756.409 782.679 754.789 785.679 753.109 788.559C745.429 802.239 738.589 811.779 732.589 817.179C732.349 817.419 731.569 817.539 730.249 817.539ZM766.429 762.459C772.069 761.499 778.069 759.039 784.429 755.079C790.789 751.119 796.069 746.379 800.269 740.859C804.469 735.339 806.389 729.819 806.029 724.299C805.309 722.139 803.809 721.059 801.529 721.059C799.969 721.059 797.989 721.599 795.589 722.679C793.309 723.759 790.969 725.139 788.569 726.819C786.169 728.499 784.009 730.179 782.089 731.859C780.289 733.539 779.029 734.979 778.309 736.179C777.709 737.019 776.989 738.519 776.149 740.679C775.669 741.639 775.309 742.479 775.069 743.199C774.829 743.919 774.649 744.399 774.529 744.639C773.929 746.199 773.209 747.939 772.369 749.859C771.529 751.659 770.629 753.579 769.669 755.619L766.429 762.459ZM732.409 806.919C732.409 807.399 732.529 807.639 732.769 807.639C733.369 807.639 734.449 806.739 736.009 804.939C738.529 802.299 740.449 799.899 741.769 797.739C744.169 793.899 746.449 790.059 748.609 786.219C750.649 782.379 752.629 778.539 754.549 774.699C758.509 767.019 760.189 762.339 759.589 760.659C757.789 762.459 755.689 765.039 753.289 768.399C750.769 771.879 748.249 775.719 745.729 779.919C743.089 784.119 740.689 788.259 738.529 792.339C736.249 796.539 734.509 800.259 733.309 803.499C732.709 805.539 732.409 806.679 732.409 806.919Z" fill="white"/>
<path d="M354.25 381.242C390.396 381.242 419.699 352.766 419.699 317.639C419.699 282.511 390.396 254.035 354.25 254.035C318.103 254.035 288.8 282.511 288.8 317.639C288.8 352.766 318.103 381.242 354.25 381.242Z" stroke="white" stroke-width="30" stroke-linecap="round" stroke-linejoin="round"/>
<path d="M354.25 617.484C390.396 617.484 419.699 589.008 419.699 553.881C419.699 518.753 390.396 490.277 354.25 490.277C318.103 490.277 288.8 518.753 288.8 553.881C288.8 589.008 318.103 617.484 354.25 617.484Z" stroke="white" stroke-width="30" stroke-linecap="round" stroke-linejoin="round"/>
<path d="M531.899 435.76L408.245 517.99" stroke="white" stroke-width="30" stroke-linecap="round" stroke-linejoin="round"/>
<path d="M756.298 286.518L598.05 391.691" stroke="white" stroke-width="30" stroke-linecap="round" stroke-linejoin="round"/>
<path d="M756.298 585.001L408.245 353.529" stroke="white" stroke-width="30" stroke-linecap="round" stroke-linejoin="round"/>
</g>
<defs>
<clipPath id="clip0_1_196">
<rect width="1024" height="1024" fill="white"/>
</clipPath>
</defs>
</svg>
