<svg width="1024" height="1024" viewBox="0 0 1024 1024" fill="none" xmlns="http://www.w3.org/2000/svg">
<path d="M353.249 381.242C389.396 381.242 418.699 352.766 418.699 317.639C418.699 282.511 389.396 254.035 353.249 254.035C317.103 254.035 287.8 282.511 287.8 317.639C287.8 352.766 317.103 381.242 353.249 381.242Z" stroke="white" stroke-width="30" stroke-linecap="round" stroke-linejoin="round"/>
<path d="M353.249 617.484C389.396 617.484 418.699 589.008 418.699 553.881C418.699 518.753 389.396 490.277 353.249 490.277C317.103 490.277 287.8 518.753 287.8 553.881C287.8 589.008 317.103 617.484 353.249 617.484Z" stroke="white" stroke-width="30" stroke-linecap="round" stroke-linejoin="round"/>
<path d="M530.899 435.76L407.245 517.99" stroke="white" stroke-width="30" stroke-linecap="round" stroke-linejoin="round"/>
<path d="M755.298 286.518L597.05 391.691" stroke="white" stroke-width="30" stroke-linecap="round" stroke-linejoin="round"/>
<path d="M755.298 585.001L407.245 353.529" stroke="white" stroke-width="30" stroke-linecap="round" stroke-linejoin="round"/>
<path d="M260.824 800.42C257.944 800.42 256.504 799.28 256.504 797C256.504 794.72 258.004 791.9 261.004 788.54C263.764 785.54 268.264 782.36 274.504 779C280.744 775.52 287.884 772.46 295.924 769.82C297.724 769.22 299.164 768.92 300.244 768.92C301.684 768.92 302.404 769.22 302.404 769.82C302.404 770.42 301.684 770.9 300.244 771.26C295.204 772.58 290.224 774.5 285.304 777.02C280.384 779.42 276.004 782 272.164 784.76C266.044 789.2 262.984 792.26 262.984 793.94C262.984 794.9 263.944 795.38 265.864 795.38C270.064 795.38 276.544 792.8 285.304 787.64C291.064 784.28 296.524 780.5 301.684 776.3C306.844 771.98 310.984 767.72 314.104 763.52C317.344 759.32 318.964 755.54 318.964 752.18C318.964 748.34 316.684 745.34 312.124 743.18C307.804 745.46 303.304 747.68 298.624 749.84C293.944 751.88 289.504 753.74 285.304 755.42C281.104 757.1 277.444 758.36 274.324 759.2C271.324 760.04 269.284 760.34 268.204 760.1C264.604 759.38 262.804 758.06 262.804 756.14C262.804 754.46 263.944 752.54 266.224 750.38C268.624 748.22 271.264 746.24 274.144 744.44C277.144 742.64 279.544 741.44 281.344 740.84C288.184 738.44 294.724 737.24 300.964 737.24C305.284 737.24 309.304 737.9 313.024 739.22C317.344 737.06 321.784 734 326.344 730.04C331.024 726.08 335.164 721.82 338.764 717.26C342.364 712.7 344.704 708.44 345.784 704.48C346.384 701.84 346.684 699.92 346.684 698.72C346.684 694.04 344.704 690.62 340.744 688.46C336.904 686.18 331.684 685.04 325.084 685.04C315.124 685.04 303.484 687.14 290.164 691.34C281.284 694.1 273.064 697.4 265.504 701.24C258.064 704.96 252.064 708.8 247.504 712.76C242.944 716.6 240.484 720.26 240.124 723.74C240.004 724.82 239.584 725.66 238.864 726.26C238.144 726.86 237.364 727.16 236.524 727.16C235.084 727.16 234.364 726.26 234.364 724.46C234.364 718.34 239.704 711.86 250.384 705.02C255.784 701.42 261.784 698.12 268.384 695.12C275.104 692 282.064 689.3 289.264 687.02C296.464 684.74 303.484 683 310.324 681.8C317.284 680.48 323.644 679.82 329.404 679.82C337.204 679.82 343.324 681.08 347.764 683.6C352.324 686.12 354.604 690.08 354.604 695.48C354.604 697.52 354.244 699.8 353.524 702.32C352.204 707.24 349.624 712.1 345.784 716.9C341.944 721.7 337.444 726.14 332.284 730.22C327.124 734.18 321.784 737.6 316.264 740.48C322.984 744.8 326.344 749.66 326.344 755.06C326.344 761.66 322.144 768.44 313.744 775.4C309.544 778.88 304.924 782.12 299.884 785.12C294.844 788.12 289.804 790.76 284.764 793.04C279.724 795.32 275.104 797.12 270.904 798.44C266.704 799.76 263.344 800.42 260.824 800.42ZM250.384 794.66C247.264 794.06 245.044 792.98 243.724 791.42C242.524 789.86 241.924 787.58 241.924 784.58C241.924 783.98 241.984 783.08 242.104 781.88C242.224 780.68 242.404 779.12 242.644 777.2C243.244 773 244.804 768.08 247.324 762.44C249.964 756.8 253.144 750.86 256.864 744.62C260.704 738.38 264.784 732.26 269.104 726.26C273.544 720.26 277.924 714.8 282.244 709.88L281.164 710.06C280.564 710.06 280.264 709.76 280.264 709.16C280.264 708.68 280.684 707.66 281.524 706.1C282.964 703.46 284.644 701.48 286.564 700.16C287.524 699.44 288.244 698.9 288.724 698.54C289.204 698.18 289.504 697.94 289.624 697.82C290.224 697.22 291.184 696.92 292.504 696.92C294.064 696.92 295.504 697.34 296.824 698.18C298.264 699.02 298.984 699.86 298.984 700.7C298.984 701.06 298.684 701.54 298.084 702.14C292.804 706.82 286.564 713.84 279.364 723.2C274.444 729.56 269.824 735.98 265.504 742.46C261.184 748.94 257.584 754.88 254.704 760.28C251.944 765.68 250.324 770.06 249.844 773.42L248.944 777.02C248.824 777.26 248.704 777.68 248.584 778.28C248.584 778.88 248.464 779.66 248.224 780.62C247.744 782.18 247.504 783.74 247.504 785.3C247.504 787.94 248.524 789.56 250.564 790.16C252.124 790.4 252.904 791.3 252.904 792.86C252.904 794.3 252.064 794.9 250.384 794.66ZM273.784 755.06C274.264 755.3 274.744 755.42 275.224 755.42C277.144 755.42 280.684 754.4 285.844 752.36C289.204 751.04 292.744 749.54 296.464 747.86C300.304 746.06 304.264 744.08 308.344 741.92C307.384 741.68 306.244 741.5 304.924 741.38C303.724 741.26 302.464 741.2 301.144 741.2C296.224 741.2 291.304 742.28 286.384 744.44H286.204C284.284 745.28 282.484 746.12 280.804 746.96C279.244 747.8 277.804 748.52 276.484 749.12C273.964 750.32 272.704 751.7 272.704 753.26C272.704 753.86 273.064 754.46 273.784 755.06ZM357.352 792.86C357.112 792.86 356.872 792.8 356.632 792.68C356.392 792.68 356.152 792.62 355.912 792.5C354.232 791.66 353.152 790.46 352.672 788.9C352.192 787.34 352.072 785.36 352.312 782.96C352.552 782 352.792 780.32 353.032 777.92C353.392 775.52 353.812 773.6 354.292 772.16L345.112 780.98L340.072 785.84C336.592 789.32 333.712 791.06 331.432 791.06C330.472 791.06 329.692 790.7 329.092 789.98C328.012 788.66 327.472 787.04 327.472 785.12C327.472 782.6 328.132 779.9 329.452 777.02C330.772 774.14 332.332 771.38 334.132 768.74C335.932 765.98 337.552 763.7 338.992 761.9C342.592 757.46 346.072 753.98 349.432 751.46C352.912 748.94 356.512 747.68 360.232 747.68C362.272 747.68 364.252 748.04 366.172 748.76C368.212 749.48 370.072 750.68 371.752 752.36L371.932 752.54C371.932 752.9 371.632 753.26 371.032 753.62C370.792 753.86 370.552 754.04 370.312 754.16C370.192 754.28 370.072 754.4 369.952 754.52C368.512 755.96 366.892 758.36 365.092 761.72C363.292 765.08 361.732 768.62 360.412 772.34C359.092 775.94 358.432 779.06 358.432 781.7C358.432 784.1 359.032 785.72 360.232 786.56C360.832 786.92 361.492 787.1 362.212 787.1C363.772 787.1 365.932 786.14 368.692 784.22C368.812 784.1 369.052 783.92 369.412 783.68C369.892 783.32 370.552 782.84 371.392 782.24C372.352 781.52 373.132 781.16 373.732 781.16C374.332 781.16 374.632 781.4 374.632 781.88C374.632 782.6 374.152 783.44 373.192 784.4C372.472 785 371.632 785.66 370.672 786.38C369.832 787.1 368.812 787.82 367.612 788.54C365.812 789.86 363.952 790.88 362.032 791.6C360.112 792.44 358.552 792.86 357.352 792.86ZM337.012 781.34C339.532 781.34 344.212 777.62 351.052 770.18C352.852 768.14 354.472 766.22 355.912 764.42C357.352 762.5 358.672 760.64 359.872 758.84C362.032 755.36 362.752 752.96 362.032 751.64C361.672 750.92 360.952 750.56 359.872 750.56C358.552 750.56 356.752 751.28 354.472 752.72C352.192 754.04 349.852 755.78 347.452 757.94C345.172 760.1 343.072 762.26 341.152 764.42C339.832 766.1 338.512 768.44 337.192 771.44C335.872 774.44 335.212 776.9 335.212 778.82C335.212 780.5 335.812 781.34 337.012 781.34ZM381.47 791.78C379.91 791.78 379.13 790.4 379.13 787.64C379.13 785.36 379.67 783.14 380.75 780.98C383.51 775.7 386.03 770.48 388.31 765.32C389.87 762.2 391.31 759.2 392.63 756.32C394.07 753.44 395.39 750.8 396.59 748.4C397.31 747.68 398.03 747.32 398.75 747.32C400.31 747.32 400.79 748.04 400.19 749.48C399.95 750.32 399.59 751.34 399.11 752.54C398.75 753.62 398.27 754.94 397.67 756.5C395.75 761.54 394.61 765.08 394.25 767.12C397.61 764.12 401.03 761.36 404.51 758.84C408.11 756.2 411.47 754.04 414.59 752.36C417.71 750.68 420.35 749.84 422.51 749.84C424.43 749.84 425.39 750.62 425.39 752.18C425.39 753.5 424.79 754.94 423.59 756.5C422.39 757.94 421.19 758.66 419.99 758.66C419.39 758.66 418.91 758.48 418.55 758.12C418.19 758 417.47 757.94 416.39 757.94C412.55 757.94 408.53 759.8 404.33 763.52C399.89 767.24 395.87 771.74 392.27 777.02C388.67 782.18 386.03 786.68 384.35 790.52C383.51 791.36 382.55 791.78 381.47 791.78ZM417.338 796.1C414.578 796.1 413.198 794.6 413.198 791.6C413.198 789.32 413.798 786.92 414.998 784.4L427.778 756.5C428.738 754.46 430.058 751.76 431.738 748.4C433.418 744.92 435.458 740.72 437.858 735.8C438.098 735.32 438.338 734.78 438.578 734.18C438.938 733.58 439.298 732.98 439.658 732.38C440.378 731.06 441.098 729.62 441.818 728.06L443.978 723.56C446.258 718.76 448.238 714.98 449.918 712.22C451.718 709.34 453.698 707.18 455.858 705.74C458.618 704.06 460.358 703.22 461.078 703.22C461.918 703.22 462.818 704.06 463.778 705.74C463.778 705.86 463.778 705.92 463.778 705.92C463.898 705.92 463.958 705.98 463.958 706.1C463.958 706.82 463.418 708.02 462.338 709.7C461.618 710.78 460.598 712.28 459.278 714.2C458.078 716 456.578 718.22 454.778 720.86C448.178 730.34 442.538 738.92 437.858 746.6C433.298 754.28 429.458 762.02 426.338 769.82C429.338 767.18 432.518 764.54 435.878 761.9C439.358 759.26 442.298 757.22 444.698 755.78C448.058 753.86 450.998 752.9 453.518 752.9C457.358 752.9 459.278 755.42 459.278 760.46C459.278 765.98 457.658 771.02 454.418 775.58C451.178 780.02 446.678 783.92 440.918 787.28C435.278 790.52 428.858 793.16 421.658 795.2C420.098 795.8 418.658 796.1 417.338 796.1ZM423.638 789.62C428.078 789.62 432.518 788.12 436.958 785.12C441.398 782.24 444.998 778.76 447.758 774.68C450.638 770.48 452.078 766.76 452.078 763.52C452.078 761.48 451.418 759.8 450.098 758.48C449.018 758.24 446.918 759.02 443.798 760.82C440.678 762.5 437.318 764.78 433.718 767.66C430.238 770.42 427.118 773.3 424.358 776.3C421.958 783.62 420.998 788 421.478 789.44L423.638 789.62ZM471.008 789.98C468.488 789.98 466.268 789.32 464.348 788C461.228 785.6 459.668 782 459.668 777.2C459.668 772.4 461.348 767.3 464.708 761.9C468.068 756.5 473.168 751.52 480.008 746.96C481.208 746.12 482.828 745.7 484.868 745.7C487.508 745.7 489.848 746.42 491.888 747.86C494.048 749.3 494.888 751.16 494.408 753.44C493.568 757.16 491.708 760.46 488.828 763.34C486.068 766.22 482.768 768.8 478.928 771.08C475.208 773.24 471.368 775.34 467.408 777.38C467.288 777.74 467.168 778.1 467.048 778.46C467.048 778.82 467.048 779.18 467.048 779.54C467.048 781.22 467.588 782.72 468.668 784.04C469.868 785.24 471.488 785.84 473.528 785.84C475.088 785.84 476.408 785.6 477.488 785.12C479.408 784.4 480.968 783.74 482.168 783.14C483.488 782.54 484.988 781.64 486.668 780.44C488.348 779.24 490.628 777.44 493.508 775.04C494.828 774.08 495.608 773.6 495.848 773.6C496.568 773.6 496.808 774.14 496.568 775.22C495.368 777.14 493.268 779.24 490.268 781.52C487.388 783.8 484.148 785.78 480.548 787.46C477.068 789.14 473.888 789.98 471.008 789.98ZM468.488 772.52C469.448 772.52 471.428 771.56 474.428 769.64C477.428 767.72 480.248 765.62 482.888 763.34C487.448 759.14 489.728 755.9 489.728 753.62C489.728 753.02 489.548 752.48 489.188 752C488.828 751.4 488.288 751.1 487.568 751.1C485.288 751.1 481.448 753.8 476.048 759.2C472.328 762.8 469.808 767.24 468.488 772.52ZM496.431 791.78C494.871 791.78 494.091 790.4 494.091 787.64C494.091 785.36 494.631 783.14 495.711 780.98C498.471 775.7 500.991 770.48 503.271 765.32C504.831 762.2 506.271 759.2 507.591 756.32C509.031 753.44 510.351 750.8 511.551 748.4C512.271 747.68 512.991 747.32 513.711 747.32C515.271 747.32 515.751 748.04 515.151 749.48C514.911 750.32 514.551 751.34 514.071 752.54C513.711 753.62 513.231 754.94 512.631 756.5C510.711 761.54 509.571 765.08 509.211 767.12C512.571 764.12 515.991 761.36 519.471 758.84C523.071 756.2 526.431 754.04 529.551 752.36C532.671 750.68 535.311 749.84 537.471 749.84C539.391 749.84 540.351 750.62 540.351 752.18C540.351 753.5 539.751 754.94 538.551 756.5C537.351 757.94 536.151 758.66 534.951 758.66C534.351 758.66 533.871 758.48 533.511 758.12C533.151 758 532.431 757.94 531.351 757.94C527.511 757.94 523.491 759.8 519.291 763.52C514.851 767.24 510.831 771.74 507.231 777.02C503.631 782.18 500.991 786.68 499.311 790.52C498.471 791.36 497.511 791.78 496.431 791.78ZM566.644 815C560.284 815 555.364 813.14 551.884 809.42C548.284 805.7 546.484 800.66 546.484 794.3C546.484 792.74 546.604 791.24 546.844 789.8C546.964 788.36 547.144 787.04 547.384 785.84C549.544 775.64 555.004 763.94 563.764 750.74C569.524 741.86 575.944 733.82 583.024 726.62C590.224 719.42 597.604 713.66 605.164 709.34C612.844 705.02 620.224 702.86 627.304 702.86C631.384 702.86 634.384 704 636.304 706.28C638.224 708.44 639.184 711.38 639.184 715.1C639.184 719.42 638.104 724.4 635.944 730.04C633.664 735.68 630.844 741.02 627.484 746.06C624.244 750.98 621.064 754.58 617.944 756.86C617.464 757.34 616.924 757.58 616.324 757.58C615.844 757.58 615.604 757.28 615.604 756.68C615.604 755.36 616.444 754.04 618.124 752.72C619.684 751.64 621.364 749.78 623.164 747.14C625.084 744.38 626.884 741.32 628.564 737.96C630.364 734.6 631.804 731.24 632.884 727.88C634.084 724.52 634.684 721.64 634.684 719.24C634.684 713.48 631.804 710.6 626.044 710.6C615.124 710.6 604.564 714.8 594.364 723.2C587.524 728.72 581.284 735.2 575.644 742.64C570.124 749.96 565.384 757.46 561.424 765.14C557.584 772.82 554.764 780.08 552.964 786.92C552.244 789.56 551.884 792.2 551.884 794.84C551.884 800 553.384 804.08 556.384 807.08C559.264 810.08 563.224 811.34 568.264 810.86C577.504 810.02 587.704 806.36 598.864 799.88C606.184 795.56 613.264 790.7 620.104 785.3C626.944 779.9 633.304 774.26 639.184 768.38C645.064 762.38 650.164 756.62 654.484 751.1L645.844 752.36C643.204 752.72 640.984 753.14 639.184 753.62C637.504 753.98 636.364 754.28 635.764 754.52C635.524 754.64 635.224 754.7 634.864 754.7C634.144 754.7 633.784 754.16 633.784 753.08C633.784 752 634.144 750.74 634.864 749.3C635.704 747.86 636.604 746.9 637.564 746.42C640.804 744.74 648.544 743.48 660.784 742.64C666.064 736.64 671.524 730.64 677.164 724.64C683.164 718.16 688.204 712.64 692.284 708.08C696.364 703.52 699.964 699.32 703.084 695.48C706.324 691.52 709.444 687.44 712.444 683.24C713.404 681.92 714.364 681.26 715.324 681.26C716.044 681.26 716.404 681.62 716.404 682.34C716.404 683.06 716.164 683.66 715.684 684.14C711.604 689.9 707.344 695.54 702.904 701.06C698.464 706.58 693.544 712.46 688.144 718.7C682.864 724.82 676.864 731.78 670.144 739.58L667.804 742.28L676.084 741.92L691.924 741.38C691.804 741.62 692.344 740.54 693.544 738.14C694.744 735.62 696.544 731.78 698.944 726.62C702.304 719.66 705.244 713.48 707.764 708.08C710.404 702.56 712.564 697.82 714.244 693.86C717.724 686.06 719.524 680.66 719.644 677.66C719.764 676.1 720.544 674.9 721.984 674.06C723.424 673.22 725.044 672.8 726.844 672.8C728.164 672.8 729.364 673.04 730.444 673.52C731.644 673.88 732.364 674.36 732.604 674.96C733.204 676.04 732.304 678.92 729.904 683.6C728.344 686.84 726.424 690.56 724.144 694.76C721.864 698.96 719.284 703.64 716.404 708.8C712.444 715.88 709.024 722.12 706.144 727.52C703.384 732.92 701.164 737.48 699.484 741.2L713.344 740.48H713.884C714.964 740.48 715.504 740.84 715.504 741.56C715.504 742.04 715.204 742.52 714.604 743C714.004 743.48 713.224 743.78 712.264 743.9L697.684 744.98C697.564 745.22 696.904 746.66 695.704 749.3C694.504 751.94 692.764 755.72 690.484 760.64C685.924 770.72 683.644 779.3 683.644 786.38C683.644 791.18 685.444 793.58 689.044 793.58C690.004 793.58 691.264 793.1 692.824 792.14C694.504 791.3 696.064 790.28 697.504 789.08C699.064 787.88 700.204 786.8 700.924 785.84C701.764 784.64 702.604 784.04 703.444 784.04C703.924 784.04 704.164 784.28 704.164 784.76C704.164 785.36 703.684 786.14 702.724 787.1C701.524 788.42 699.964 789.92 698.044 791.6C696.124 793.28 694.204 794.72 692.284 795.92C690.364 797.12 688.744 797.78 687.424 797.9C679.744 798.38 675.904 794.9 675.904 787.46C675.904 783.02 676.984 777.92 679.144 772.16C681.424 766.4 684.244 759.68 687.604 752L690.484 745.52C686.404 745.88 680.824 746.78 673.744 748.22C671.224 748.7 668.944 749.12 666.904 749.48C664.984 749.72 663.364 749.96 662.044 750.2C654.964 758.24 647.344 766.1 639.184 773.78C631.024 781.46 622.684 788.42 614.164 794.66C605.764 800.9 597.484 805.82 589.324 809.42C581.284 813.14 573.724 815 566.644 815ZM680.382 840.02C679.182 840.02 678.342 839.9 677.862 839.66C677.502 839.3 677.142 838.88 676.782 838.4C676.422 837.92 676.242 837.5 676.242 837.14C676.482 831.98 678.102 826.1 681.102 819.5C684.102 812.9 688.062 806 692.982 798.8C697.782 791.6 702.942 784.7 708.462 778.1C713.382 772.1 716.802 767.6 718.722 764.6C720.282 761.96 722.082 758.12 724.122 753.08C726.282 747.92 728.682 741.62 731.322 734.18C731.562 733.46 732.462 732.98 734.022 732.74C735.942 732.74 736.902 734.18 736.902 737.06C736.902 738.62 736.722 739.76 736.362 740.48C736.242 741.08 736.062 741.68 735.822 742.28C735.702 742.76 735.582 743.12 735.462 743.36C735.102 744.08 734.922 744.56 734.922 744.8C734.922 744.8 734.982 744.98 735.102 745.34C735.222 745.7 735.342 746.18 735.462 746.78C739.422 744.86 742.902 743.36 745.902 742.28C748.902 741.08 751.782 740.48 754.542 740.48C757.782 740.48 760.002 741.56 761.202 743.72C761.562 744.44 761.742 745.34 761.742 746.42C761.742 749.06 760.722 752.42 758.682 756.5C756.642 760.46 754.002 764.6 750.762 768.92C747.642 773.12 744.222 776.9 740.502 780.26C739.182 781.46 737.262 782.78 734.742 784.22C732.342 785.66 729.702 786.98 726.822 788.18C724.062 789.5 721.362 790.58 718.722 791.42C716.202 792.26 714.222 792.68 712.782 792.68C711.222 795.92 709.662 799.04 708.102 802.04C706.542 805.16 704.922 808.16 703.242 811.04C695.562 824.72 688.722 834.26 682.722 839.66C682.482 839.9 681.702 840.02 680.382 840.02ZM716.562 784.94C722.202 783.98 728.202 781.52 734.562 777.56C740.922 773.6 746.202 768.86 750.402 763.34C754.602 757.82 756.522 752.3 756.162 746.78C755.442 744.62 753.942 743.54 751.662 743.54C750.102 743.54 748.122 744.08 745.722 745.16C743.442 746.24 741.102 747.62 738.702 749.3C736.302 750.98 734.142 752.66 732.222 754.34C730.422 756.02 729.162 757.46 728.442 758.66C727.842 759.5 727.122 761 726.282 763.16C725.802 764.12 725.442 764.96 725.202 765.68C724.962 766.4 724.782 766.88 724.662 767.12C724.062 768.68 723.342 770.42 722.502 772.34C721.662 774.14 720.762 776.06 719.802 778.1L716.562 784.94ZM682.542 829.4C682.542 829.88 682.662 830.12 682.902 830.12C683.502 830.12 684.582 829.22 686.142 827.42C688.662 824.78 690.582 822.38 691.902 820.22C694.302 816.38 696.582 812.54 698.742 808.7C700.782 804.86 702.762 801.02 704.682 797.18C708.642 789.5 710.322 784.82 709.722 783.14C707.922 784.94 705.822 787.52 703.422 790.88C700.902 794.36 698.382 798.2 695.862 802.4C693.222 806.6 690.822 810.74 688.662 814.82C686.382 819.02 684.642 822.74 683.442 825.98C682.842 828.02 682.542 829.16 682.542 829.4ZM729.249 840.02C728.049 840.02 727.209 839.9 726.729 839.66C726.369 839.3 726.009 838.88 725.649 838.4C725.289 837.92 725.109 837.5 725.109 837.14C725.349 831.98 726.969 826.1 729.969 819.5C732.969 812.9 736.929 806 741.849 798.8C746.649 791.6 751.809 784.7 757.329 778.1C762.249 772.1 765.669 767.6 767.589 764.6C769.149 761.96 770.949 758.12 772.989 753.08C775.149 747.92 777.549 741.62 780.189 734.18C780.429 733.46 781.329 732.98 782.889 732.74C784.809 732.74 785.769 734.18 785.769 737.06C785.769 738.62 785.589 739.76 785.229 740.48C785.109 741.08 784.929 741.68 784.689 742.28C784.569 742.76 784.449 743.12 784.329 743.36C783.969 744.08 783.789 744.56 783.789 744.8C783.789 744.8 783.849 744.98 783.969 745.34C784.089 745.7 784.209 746.18 784.329 746.78C788.289 744.86 791.769 743.36 794.769 742.28C797.769 741.08 800.649 740.48 803.409 740.48C806.649 740.48 808.869 741.56 810.069 743.72C810.429 744.44 810.609 745.34 810.609 746.42C810.609 749.06 809.589 752.42 807.549 756.5C805.509 760.46 802.869 764.6 799.629 768.92C796.509 773.12 793.089 776.9 789.369 780.26C788.049 781.46 786.129 782.78 783.609 784.22C781.209 785.66 778.569 786.98 775.689 788.18C772.929 789.5 770.229 790.58 767.589 791.42C765.069 792.26 763.089 792.68 761.649 792.68C760.089 795.92 758.529 799.04 756.969 802.04C755.409 805.16 753.789 808.16 752.109 811.04C744.429 824.72 737.589 834.26 731.589 839.66C731.349 839.9 730.569 840.02 729.249 840.02ZM765.429 784.94C771.069 783.98 777.069 781.52 783.429 777.56C789.789 773.6 795.069 768.86 799.269 763.34C803.469 757.82 805.389 752.3 805.029 746.78C804.309 744.62 802.809 743.54 800.529 743.54C798.969 743.54 796.989 744.08 794.589 745.16C792.309 746.24 789.969 747.62 787.569 749.3C785.169 750.98 783.009 752.66 781.089 754.34C779.289 756.02 778.029 757.46 777.309 758.66C776.709 759.5 775.989 761 775.149 763.16C774.669 764.12 774.309 764.96 774.069 765.68C773.829 766.4 773.649 766.88 773.529 767.12C772.929 768.68 772.209 770.42 771.369 772.34C770.529 774.14 769.629 776.06 768.669 778.1L765.429 784.94ZM731.409 829.4C731.409 829.88 731.529 830.12 731.769 830.12C732.369 830.12 733.449 829.22 735.009 827.42C737.529 824.78 739.449 822.38 740.769 820.22C743.169 816.38 745.449 812.54 747.609 808.7C749.649 804.86 751.629 801.02 753.549 797.18C757.509 789.5 759.189 784.82 758.589 783.14C756.789 784.94 754.689 787.52 752.289 790.88C749.769 794.36 747.249 798.2 744.729 802.4C742.089 806.6 739.689 810.74 737.529 814.82C735.249 819.02 733.509 822.74 732.309 825.98C731.709 828.02 731.409 829.16 731.409 829.4Z" fill="white"/>
</svg>
